<svg width="300" height="300" viewBox="0 0 300 300" fill="none" xmlns="http://www.w3.org/2000/svg">
<path d="M149.552 86.1001C120.119 86.1001 90.6861 86.1001 61.2531 86.1001C60.1272 86.1001 58.8405 86.1001 57.8755 86.4218C57.2322 86.5826 56.428 86.4218 56.2671 87.0651C56.1063 87.7085 56.7496 88.0301 57.2322 88.3518C83.6093 114.729 110.147 141.267 136.525 167.644C137.972 169.092 139.42 170.378 141.028 171.343C147.783 175.203 155.825 174.078 161.454 168.448C188.153 141.75 214.691 115.211 241.39 88.5126C241.712 88.191 241.872 88.0301 242.194 87.7085C242.998 86.9043 242.677 86.4218 241.712 86.2609C240.425 86.1001 239.299 86.1001 238.012 86.1001C208.418 86.1001 178.985 86.1001 149.552 86.1001Z" fill="#FFAA45"/>
<path d="M149.391 212.839C178.985 212.839 208.418 212.839 238.012 212.839C238.977 212.839 239.942 212.839 240.747 212.678C241.39 212.518 242.355 212.678 242.516 211.874C242.677 211.07 241.872 210.748 241.551 210.266C222.733 191.609 204.076 172.952 185.258 154.134C183.65 152.526 183.65 152.526 182.041 154.134C175.769 160.407 169.657 166.518 163.384 172.791C155.342 180.833 143.441 180.833 135.399 172.791C129.287 166.679 123.175 160.567 117.063 154.456C115.133 152.526 115.133 152.526 113.203 154.456C94.7071 172.952 76.0501 191.609 57.393 210.266C57.0714 210.588 56.9105 210.748 56.5889 211.07C55.9455 211.713 56.1064 212.196 56.9105 212.518C58.1972 213 59.4839 213 60.7706 213C90.3645 212.839 119.798 212.839 149.391 212.839Z" fill="#FFAA45"/>
<path d="M51.9246 149.469C51.9246 167.483 51.9246 185.497 51.9246 203.511C51.9246 204.315 51.9246 205.119 51.9246 205.923C52.0854 206.727 51.9246 207.853 52.7287 208.175C53.5329 208.496 54.0154 207.531 54.4979 207.049C73.155 188.392 91.6512 169.896 110.308 151.239C112.077 149.469 112.077 149.469 110.308 147.861C91.812 129.204 73.155 110.547 54.4979 91.89C54.1763 91.5684 54.0154 91.4075 53.8546 91.2467C52.8896 90.2817 52.5679 90.6034 52.2462 91.7292C51.9246 92.8551 51.9246 93.9809 51.9246 95.1068C51.9246 113.281 51.9246 131.295 51.9246 149.469Z" fill="#FFAA45"/>
<path d="M247.18 149.47C247.18 131.295 247.18 113.121 247.18 95.1069C247.18 93.9811 247.18 92.8552 246.858 91.7294C246.537 90.7643 246.215 90.2818 245.25 91.2468C244.928 91.5685 244.767 91.7294 244.446 92.051C225.789 110.547 207.293 129.204 188.636 147.7C186.705 149.63 186.705 149.63 188.636 151.4C207.132 169.896 225.789 188.553 244.285 207.049C244.607 207.371 244.928 207.692 245.25 208.014C246.054 208.818 246.537 208.497 246.697 207.532C247.019 206.406 247.019 205.28 247.019 204.154C247.18 185.819 247.18 167.644 247.18 149.47Z" fill="#FFAA45"/>
<rect x="2" y="2" width="296" height="296" rx="58" stroke="url(#paint0_linear_698_31596)" stroke-width="4"/>
<defs>
<linearGradient id="paint0_linear_698_31596" x1="0" y1="0" x2="300" y2="300" gradientUnits="userSpaceOnUse">
<stop stop-color="#DE4A35"/>
<stop offset="1" stop-color="#FDA544"/>
</linearGradient>
</defs>
</svg>
