<svg width="20" height="18" viewBox="0 0 20 18" fill="none" xmlns="http://www.w3.org/2000/svg">
<path fill-rule="evenodd" clip-rule="evenodd" d="M20 12.4384C20 15.5096 17.9502 18.0084 14.9089 18H5.09114C2.04979 18.0084 0 15.5096 0 12.4384V5.57001C0 2.49883 2.04979 0 5.09114 0H14.9089C17.9502 0 20 2.49883 20 5.57001V12.4384ZM4.58992 5.26723C4.26747 5.00723 3.7953 5.05785 3.5353 5.3803C3.2753 5.70275 3.32592 6.17491 3.64837 6.43492L8.12915 10.048L8.12913 10.048L8.13379 10.0517C9.2463 10.9343 10.8137 10.9343 11.9262 10.0517L11.9262 10.0517L11.9332 10.046L16.3765 6.43298C16.6979 6.17165 16.7466 5.69928 16.4852 5.3779C16.2239 5.05653 15.7515 5.00785 15.4302 5.26917L10.9907 8.87909C10.4251 9.32541 9.63342 9.32512 9.06815 8.87821L4.58992 5.26723Z" fill="#232323"/>
</svg>
